<svg xmlns="http://www.w3.org/2000/svg" xmlns:xlink="http://www.w3.org/1999/xlink" width="140" height="140" viewBox="0 0 140 140">
  <defs>
    <filter id="Path_17310" x="0" y="0" width="140" height="140" filterUnits="userSpaceOnUse">
      <feOffset dy="3" input="SourceAlpha"/>
      <feGaussianBlur stdDeviation="3" result="blur"/>
      <feFlood flood-opacity="0.161"/>
      <feComposite operator="in" in2="blur"/>
    </filter>
    <filter id="Path_17310-2" x="0" y="0" width="140" height="140" filterUnits="userSpaceOnUse">
      <feOffset dy="3" input="SourceAlpha"/>
      <feGaussianBlur stdDeviation="3" result="blur-2"/>
      <feFlood flood-color="#b1b1b1" flood-opacity="0.071" result="color"/>
      <feComposite operator="out" in="SourceGraphic" in2="blur-2"/>
      <feComposite operator="in" in="color"/>
      <feComposite operator="in" in2="SourceGraphic"/>
    </filter>
    <clipPath id="clip-path">
      <rect id="Rectangle_366" data-name="Rectangle 366" width="66.444" height="104.884" fill="none"/>
    </clipPath>
    <clipPath id="clip-path-2">
      <rect id="Rectangle_344" data-name="Rectangle 344" width="2.122" height="13.926" fill="none"/>
    </clipPath>
    <clipPath id="clip-path-3">
      <path id="Rectangle_346" data-name="Rectangle 346" d="M4.517,0h9.535a4.517,4.517,0,0,1,4.517,4.517v.117a4.517,4.517,0,0,1-4.517,4.517H4.518A4.518,4.518,0,0,1,0,4.633V4.517A4.517,4.517,0,0,1,4.517,0Z" fill="none"/>
    </clipPath>
    <clipPath id="clip-path-4">
      <path id="Path_17287" data-name="Path 17287" d="M26.884,39.419A26.962,26.962,0,0,0,0,66.3v8.536a15.154,15.154,0,0,0,15.11,15.11H51.335a15.109,15.109,0,0,0,15.11-15.11V66.3A26.963,26.963,0,0,0,39.561,39.419Z" transform="translate(0 -39.419)" fill="none"/>
    </clipPath>
    <linearGradient id="linear-gradient" x1="0.5" x2="0.5" y2="1" gradientUnits="objectBoundingBox">
      <stop offset="0" stop-color="#fa8019"/>
      <stop offset="1" stop-color="#af5a14"/>
    </linearGradient>
    <clipPath id="clip-path-5">
      <path id="Path_17288" data-name="Path 17288" d="M33.866,74.623c-8.112.422-14.729,6.039-15.737,13.345l-.022.157a5.173,5.173,0,0,0,3,5.3,6.323,6.323,0,0,0,2.8.646H63.233a6.322,6.322,0,0,0,2.8-.646,5.172,5.172,0,0,0,3-5.3L69,87.966c-1.012-7.333-7.677-12.928-15.82-13.348q-4.109-.213-8.528-.245-.547,0-1.09,0c-3.365,0-6.6.091-9.7.252" transform="translate(-18.062 -74.371)" fill="none"/>
    </clipPath>
    <linearGradient id="linear-gradient-2" x1="-1.094" y1="2.026" x2="-1.074" y2="2.026" gradientUnits="objectBoundingBox">
      <stop offset="0" stop-color="#505050"/>
      <stop offset="1" stop-color="#0b2f45"/>
    </linearGradient>
    <clipPath id="clip-path-6">
      <rect id="Rectangle_351" data-name="Rectangle 351" width="66.444" height="120.884" fill="none"/>
    </clipPath>
    <clipPath id="clip-path-7">
      <rect id="Rectangle_350" data-name="Rectangle 350" width="14.833" height="14.833" fill="none"/>
    </clipPath>
    <clipPath id="clip-path-8">
      <path id="Path_17289" data-name="Path 17289" d="M50.968,89.412A7.416,7.416,0,1,1,43.551,82a7.416,7.416,0,0,1,7.417,7.417" transform="translate(-36.135 -81.995)" fill="none"/>
    </clipPath>
    <radialGradient id="radial-gradient" cx="0.5" cy="0.5" r="0.495" gradientTransform="matrix(1, 0, 0, -1, 0, 11.576)" gradientUnits="objectBoundingBox">
      <stop offset="0" stop-color="#3280fc"/>
      <stop offset="0.13" stop-color="#3280fc"/>
      <stop offset="1"/>
    </radialGradient>
    <clipPath id="clip-path-9">
      <path id="Path_17291" data-name="Path 17291" d="M43.028,93.36A4.471,4.471,0,1,0,47.5,88.889a4.471,4.471,0,0,0-4.471,4.471" transform="translate(-43.028 -88.889)" fill="none"/>
    </clipPath>
    <linearGradient id="linear-gradient-3" x1="-2.056" y1="9.271" x2="-2.008" y2="9.271" gradientUnits="objectBoundingBox">
      <stop offset="0" stop-color="#030d14"/>
      <stop offset="1" stop-color="#0b2f45"/>
    </linearGradient>
    <clipPath id="clip-path-12">
      <path id="Path_17295" data-name="Path 17295" d="M97.86,89.412A7.416,7.416,0,1,1,90.444,82a7.416,7.416,0,0,1,7.416,7.417" transform="translate(-83.027 -81.995)" fill="none"/>
    </clipPath>
    <radialGradient id="radial-gradient-2" r="0.495" xlink:href="#radial-gradient"/>
    <clipPath id="clip-path-13">
      <path id="Path_17297" data-name="Path 17297" d="M89.92,93.36a4.471,4.471,0,1,0,4.471-4.471A4.471,4.471,0,0,0,89.92,93.36" transform="translate(-89.92 -88.889)" fill="none"/>
    </clipPath>
    <linearGradient id="linear-gradient-4" x1="-4.296" y1="9.271" x2="-4.249" y2="9.271" xlink:href="#linear-gradient-3"/>
    <clipPath id="clip-path-15">
      <path id="Path_17305" data-name="Path 17305" d="M78.023,129.256,68.2,130.2a1.518,1.518,0,0,1-1.562-.918A6.561,6.561,0,0,0,79.4,127.93a1.517,1.517,0,0,1-1.373,1.326" transform="translate(-66.634 -127.93)" fill="none"/>
    </clipPath>
    <clipPath id="clip-path-16">
      <path id="Path_17306" data-name="Path 17306" d="M65.177,161.551l-12.9.051-13.143.055a9.089,9.089,0,0,0-7.072,3.3,7.032,7.032,0,0,0-1.641,3.984,6.514,6.514,0,0,0,0,.671,6.045,6.045,0,0,0,.314,1.617c3.791,11.586,5.451,15.49,9.768,20.188a11.5,11.5,0,0,0,4.71,2.747,17.2,17.2,0,0,0,6.155.826c.269,0,.523,0,.76,0h.287c.236,0,.489,0,.758,0a17.208,17.208,0,0,0,6.157-.826,11.521,11.521,0,0,0,4.709-2.747c.706-.769,1.342-1.515,1.923-2.28.444-.573.855-1.158,1.248-1.766,2.272-3.524,3.893-7.881,6.6-16.142a6.074,6.074,0,0,0,.318-1.723c0-.082,0-.169,0-.259,0-.188-.012-.373-.027-.557-.016-.165-.039-.334-.067-.5a7.2,7.2,0,0,0-1.6-3.332,9.31,9.31,0,0,0-7.215-3.313h-.041" transform="translate(-30.41 -161.551)" fill="none"/>
    </clipPath>
    <linearGradient id="linear-gradient-5" x1="0.5" x2="0.5" y2="1" gradientUnits="objectBoundingBox">
      <stop offset="0" stop-color="#fa8019"/>
      <stop offset="1" stop-color="#c46617"/>
    </linearGradient>
    <clipPath id="clip-path-17">
      <path id="Path_17307" data-name="Path 17307" d="M32.114,164.867a6.961,6.961,0,0,0-1.692,4.082,7.026,7.026,0,0,1,1.64-3.984,9.091,9.091,0,0,1,7.072-3.3l13.143-.055-12.908-.051h-.041a9.3,9.3,0,0,0-7.215,3.312" transform="translate(-30.422 -161.555)" fill="none"/>
    </clipPath>
    <linearGradient id="linear-gradient-6" x1="-0.706" y1="2.749" x2="-0.685" y2="2.749" gradientUnits="objectBoundingBox">
      <stop offset="0" stop-color="#06cff1"/>
      <stop offset="0.04" stop-color="#06cff1"/>
      <stop offset="1" stop-color="#defa8e"/>
    </linearGradient>
    <clipPath id="clip-path-18">
      <path id="Path_17308" data-name="Path 17308" d="M115.15,167.791a6.01,6.01,0,0,0-3.39,2.064c-2.034,2.426-.655,4.442-.463,14.637.029,1.537.049,4.263,1.846,6.366a2.713,2.713,0,0,0,1.77,1.172c1.916.088,3.488-3.611,4.074-4.991,2.687-6.325,3.9-16.345-.182-18.657a5.748,5.748,0,0,0-2.7-.678,5.223,5.223,0,0,0-.952.086" transform="translate(-110.663 -167.705)" fill="none"/>
    </clipPath>
    <clipPath id="clip-path-19">
      <path id="Path_17309" data-name="Path 17309" d="M108.02,174.151c-2.037,2.425-.655,4.439-.463,14.635.027,1.539.047,4.262,1.845,6.366.114.133.24.278.381.424.444-.573.855-1.158,1.248-1.766a.176.176,0,0,0-.031-.039c-1.794-2.107-1.817-4.831-1.845-6.37-.192-10.164-1.562-12.2.448-14.615a6.344,6.344,0,0,0-1.582,1.366" transform="translate(-106.921 -172.785)" fill="#cf7d37"/>
    </clipPath>
  </defs>
  <g id="Group_23263" data-name="Group 23263" transform="translate(-1373 -828)">
    <g data-type="innerShadowGroup">
      <g transform="matrix(1, 0, 0, 1, 1373, 828)" filter="url(#Path_17310)">
        <g id="Path_17310-3" data-name="Path 17310" transform="translate(9 6)" fill="#fff">
          <path d="M 61 121.5 C 52.83234024047852 121.5 44.90924453735352 119.9004592895508 37.45083236694336 116.7458190917969 C 33.86606216430664 115.2295837402344 30.40850830078125 113.3528900146484 27.17423057556152 111.1678466796875 C 23.97053909301758 109.0034790039063 20.95790863037109 106.5178298950195 18.22004699707031 103.7799530029297 C 15.48216915130615 101.0420913696289 12.99652290344238 98.02946472167969 10.83215427398682 94.82576751708984 C 8.64710807800293 91.59149169921875 6.770415306091309 88.13394165039063 5.254184722900391 84.54917144775391 C 2.099538564682007 77.09075164794922 0.5 69.16766357421875 0.5 61 C 0.5 52.83234024047852 2.099538564682007 44.90924453735352 5.254184722900391 37.45083236694336 C 6.770415306091309 33.86606216430664 8.64710807800293 30.40850830078125 10.83215427398682 27.17423057556152 C 12.99652290344238 23.97053909301758 15.48216915130615 20.95790863037109 18.22004699707031 18.22004699707031 C 20.95790863037109 15.48216915130615 23.97053909301758 12.99652290344238 27.17423057556152 10.83215427398682 C 30.40850830078125 8.64710807800293 33.86606216430664 6.770415306091309 37.45083236694336 5.254184722900391 C 44.90924453735352 2.099538564682007 52.83234024047852 0.5 61 0.5 C 69.16766357421875 0.5 77.09075164794922 2.099538564682007 84.54917144775391 5.254184722900391 C 88.13394165039063 6.770415306091309 91.59149169921875 8.64710807800293 94.82576751708984 10.83215427398682 C 98.02946472167969 12.99652290344238 101.0420913696289 15.48216915130615 103.7799530029297 18.22004699707031 C 106.5178298950195 20.95790863037109 109.0034790039063 23.97053909301758 111.1678466796875 27.17423057556152 C 113.3528900146484 30.40850830078125 115.2295837402344 33.86606216430664 116.7458190917969 37.45083236694336 C 119.9004592895508 44.90924453735352 121.5 52.83234024047852 121.5 61 C 121.5 69.16766357421875 119.9004592895508 77.09075164794922 116.7458190917969 84.54917144775391 C 115.2295837402344 88.13394165039063 113.3528900146484 91.59149169921875 111.1678466796875 94.82576751708984 C 109.0034790039063 98.02946472167969 106.5178298950195 101.0420913696289 103.7799530029297 103.7799530029297 C 101.0420913696289 106.5178298950195 98.02946472167969 109.0034790039063 94.82576751708984 111.1678466796875 C 91.59149169921875 113.3528900146484 88.13394165039063 115.2295837402344 84.54917144775391 116.7458190917969 C 77.09075164794922 119.9004592895508 69.16766357421875 121.5 61 121.5 Z" stroke="none"/>
          <path d="M 61 1 C 52.89962005615234 1 45.04205322265625 2.586250305175781 37.64559936523438 5.714683532714844 C 34.09056854248047 7.218330383300781 30.66166687011719 9.079498291015625 27.45413208007813 11.24646759033203 C 24.27681732177734 13.39301300048828 21.28896331787109 15.85821533203125 18.57360076904297 18.57360076904297 C 15.85821533203125 21.28896331787109 13.39301300048828 24.27681732177734 11.24646759033203 27.45413208007813 C 9.079498291015625 30.66166687011719 7.218330383300781 34.09056854248047 5.714683532714844 37.64559936523438 C 2.586250305175781 45.04205322265625 1 52.89962005615234 1 61 C 1 69.10038757324219 2.586250305175781 76.95794677734375 5.714683532714844 84.35440063476563 C 7.218330383300781 87.90943145751953 9.079498291015625 91.33833312988281 11.24646759033203 94.54586791992188 C 13.39301300048828 97.72318267822266 15.85821533203125 100.7110290527344 18.57360076904297 103.426399230957 C 21.28896331787109 106.1417846679688 24.27681732177734 108.6069793701172 27.45413208007813 110.753532409668 C 30.66166687011719 112.9205017089844 34.09056854248047 114.7816696166992 37.64559936523438 116.2853164672852 C 45.04205322265625 119.4137496948242 52.89962005615234 121 61 121 C 69.10038757324219 121 76.95794677734375 119.4137496948242 84.35440063476563 116.2853164672852 C 87.90943145751953 114.7816696166992 91.33833312988281 112.9205017089844 94.54586791992188 110.753532409668 C 97.72318267822266 108.6069793701172 100.7110290527344 106.1417846679688 103.426399230957 103.426399230957 C 106.1417846679688 100.7110290527344 108.6069793701172 97.72318267822266 110.753532409668 94.54586791992188 C 112.9205017089844 91.33833312988281 114.7816696166992 87.90943145751953 116.2853164672852 84.35440063476563 C 119.4137496948242 76.95794677734375 121 69.10038757324219 121 61 C 121 52.89962005615234 119.4137496948242 45.04205322265625 116.2853164672852 37.64559936523438 C 114.7816696166992 34.09056854248047 112.9205017089844 30.66166687011719 110.753532409668 27.45413208007813 C 108.6069793701172 24.27681732177734 106.1417846679688 21.28896331787109 103.426399230957 18.57360076904297 C 100.7110290527344 15.85821533203125 97.72318267822266 13.39301300048828 94.54586791992188 11.24646759033203 C 91.33833312988281 9.079498291015625 87.90943145751953 7.218330383300781 84.35440063476563 5.714683532714844 C 76.95794677734375 2.586250305175781 69.10038757324219 1 61 1 M 61 0 C 94.68936920166016 0 122 27.31063079833984 122 61 C 122 94.68936920166016 94.68936920166016 122 61 122 C 27.31063079833984 122 0 94.68936920166016 0 61 C 0 27.31063079833984 27.31063079833984 0 61 0 Z" stroke="none" fill="#fa8019"/>
        </g>
      </g>
      <g id="Path_17310-4" data-name="Path 17310" transform="translate(1382 834)" fill="#fff">
        <path d="M 61 121.5 C 52.83234024047852 121.5 44.90924453735352 119.9004592895508 37.45083236694336 116.7458190917969 C 33.86606216430664 115.2295837402344 30.40850830078125 113.3528900146484 27.17423057556152 111.1678466796875 C 23.97053909301758 109.0034790039063 20.95790863037109 106.5178298950195 18.22004699707031 103.7799530029297 C 15.48216915130615 101.0420913696289 12.99652290344238 98.02946472167969 10.83215427398682 94.82576751708984 C 8.64710807800293 91.59149169921875 6.770415306091309 88.13394165039063 5.254184722900391 84.54917144775391 C 2.099538564682007 77.09075164794922 0.5 69.16766357421875 0.5 61 C 0.5 52.83234024047852 2.099538564682007 44.90924453735352 5.254184722900391 37.45083236694336 C 6.770415306091309 33.86606216430664 8.64710807800293 30.40850830078125 10.83215427398682 27.17423057556152 C 12.99652290344238 23.97053909301758 15.48216915130615 20.95790863037109 18.22004699707031 18.22004699707031 C 20.95790863037109 15.48216915130615 23.97053909301758 12.99652290344238 27.17423057556152 10.83215427398682 C 30.40850830078125 8.64710807800293 33.86606216430664 6.770415306091309 37.45083236694336 5.254184722900391 C 44.90924453735352 2.099538564682007 52.83234024047852 0.5 61 0.5 C 69.16766357421875 0.5 77.09075164794922 2.099538564682007 84.54917144775391 5.254184722900391 C 88.13394165039063 6.770415306091309 91.59149169921875 8.64710807800293 94.82576751708984 10.83215427398682 C 98.02946472167969 12.99652290344238 101.0420913696289 15.48216915130615 103.7799530029297 18.22004699707031 C 106.5178298950195 20.95790863037109 109.0034790039063 23.97053909301758 111.1678466796875 27.17423057556152 C 113.3528900146484 30.40850830078125 115.2295837402344 33.86606216430664 116.7458190917969 37.45083236694336 C 119.9004592895508 44.90924453735352 121.5 52.83234024047852 121.5 61 C 121.5 69.16766357421875 119.9004592895508 77.09075164794922 116.7458190917969 84.54917144775391 C 115.2295837402344 88.13394165039063 113.3528900146484 91.59149169921875 111.1678466796875 94.82576751708984 C 109.0034790039063 98.02946472167969 106.5178298950195 101.0420913696289 103.7799530029297 103.7799530029297 C 101.0420913696289 106.5178298950195 98.02946472167969 109.0034790039063 94.82576751708984 111.1678466796875 C 91.59149169921875 113.3528900146484 88.13394165039063 115.2295837402344 84.54917144775391 116.7458190917969 C 77.09075164794922 119.9004592895508 69.16766357421875 121.5 61 121.5 Z" stroke="none"/>
        <path d="M 61 1 C 52.89962005615234 1 45.04205322265625 2.586250305175781 37.64559936523438 5.714683532714844 C 34.09056854248047 7.218330383300781 30.66166687011719 9.079498291015625 27.45413208007813 11.24646759033203 C 24.27681732177734 13.39301300048828 21.28896331787109 15.85821533203125 18.57360076904297 18.57360076904297 C 15.85821533203125 21.28896331787109 13.39301300048828 24.27681732177734 11.24646759033203 27.45413208007813 C 9.079498291015625 30.66166687011719 7.218330383300781 34.09056854248047 5.714683532714844 37.64559936523438 C 2.586250305175781 45.04205322265625 1 52.89962005615234 1 61 C 1 69.10038757324219 2.586250305175781 76.95794677734375 5.714683532714844 84.35440063476563 C 7.218330383300781 87.90943145751953 9.079498291015625 91.33833312988281 11.24646759033203 94.54586791992188 C 13.39301300048828 97.72318267822266 15.85821533203125 100.7110290527344 18.57360076904297 103.426399230957 C 21.28896331787109 106.1417846679688 24.27681732177734 108.6069793701172 27.45413208007813 110.753532409668 C 30.66166687011719 112.9205017089844 34.09056854248047 114.7816696166992 37.64559936523438 116.2853164672852 C 45.04205322265625 119.4137496948242 52.89962005615234 121 61 121 C 69.10038757324219 121 76.95794677734375 119.4137496948242 84.35440063476563 116.2853164672852 C 87.90943145751953 114.7816696166992 91.33833312988281 112.9205017089844 94.54586791992188 110.753532409668 C 97.72318267822266 108.6069793701172 100.7110290527344 106.1417846679688 103.426399230957 103.426399230957 C 106.1417846679688 100.7110290527344 108.6069793701172 97.72318267822266 110.753532409668 94.54586791992188 C 112.9205017089844 91.33833312988281 114.7816696166992 87.90943145751953 116.2853164672852 84.35440063476563 C 119.4137496948242 76.95794677734375 121 69.10038757324219 121 61 C 121 52.89962005615234 119.4137496948242 45.04205322265625 116.2853164672852 37.64559936523438 C 114.7816696166992 34.09056854248047 112.9205017089844 30.66166687011719 110.753532409668 27.45413208007813 C 108.6069793701172 24.27681732177734 106.1417846679688 21.28896331787109 103.426399230957 18.57360076904297 C 100.7110290527344 15.85821533203125 97.72318267822266 13.39301300048828 94.54586791992188 11.24646759033203 C 91.33833312988281 9.079498291015625 87.90943145751953 7.218330383300781 84.35440063476563 5.714683532714844 C 76.95794677734375 2.586250305175781 69.10038757324219 1 61 1 M 61 0 C 94.68936920166016 0 122 27.31063079833984 122 61 C 122 94.68936920166016 94.68936920166016 122 61 122 C 27.31063079833984 122 0 94.68936920166016 0 61 C 0 27.31063079833984 27.31063079833984 0 61 0 Z" stroke="none"/>
      </g>
      <g transform="matrix(1, 0, 0, 1, 1373, 828)" filter="url(#Path_17310-2)">
        <g id="Path_17310-5" data-name="Path 17310" transform="translate(9 6)" fill="#fff">
          <path d="M 61 121.5 C 52.83234024047852 121.5 44.90924453735352 119.9004592895508 37.45083236694336 116.7458190917969 C 33.86606216430664 115.2295837402344 30.40850830078125 113.3528900146484 27.17423057556152 111.1678466796875 C 23.97053909301758 109.0034790039063 20.95790863037109 106.5178298950195 18.22004699707031 103.7799530029297 C 15.48216915130615 101.0420913696289 12.99652290344238 98.02946472167969 10.83215427398682 94.82576751708984 C 8.64710807800293 91.59149169921875 6.770415306091309 88.13394165039063 5.254184722900391 84.54917144775391 C 2.099538564682007 77.09075164794922 0.5 69.16766357421875 0.5 61 C 0.5 52.83234024047852 2.099538564682007 44.90924453735352 5.254184722900391 37.45083236694336 C 6.770415306091309 33.86606216430664 8.64710807800293 30.40850830078125 10.83215427398682 27.17423057556152 C 12.99652290344238 23.97053909301758 15.48216915130615 20.95790863037109 18.22004699707031 18.22004699707031 C 20.95790863037109 15.48216915130615 23.97053909301758 12.99652290344238 27.17423057556152 10.83215427398682 C 30.40850830078125 8.64710807800293 33.86606216430664 6.770415306091309 37.45083236694336 5.254184722900391 C 44.90924453735352 2.099538564682007 52.83234024047852 0.5 61 0.5 C 69.16766357421875 0.5 77.09075164794922 2.099538564682007 84.54917144775391 5.254184722900391 C 88.13394165039063 6.770415306091309 91.59149169921875 8.64710807800293 94.82576751708984 10.83215427398682 C 98.02946472167969 12.99652290344238 101.0420913696289 15.48216915130615 103.7799530029297 18.22004699707031 C 106.5178298950195 20.95790863037109 109.0034790039063 23.97053909301758 111.1678466796875 27.17423057556152 C 113.3528900146484 30.40850830078125 115.2295837402344 33.86606216430664 116.7458190917969 37.45083236694336 C 119.9004592895508 44.90924453735352 121.5 52.83234024047852 121.5 61 C 121.5 69.16766357421875 119.9004592895508 77.09075164794922 116.7458190917969 84.54917144775391 C 115.2295837402344 88.13394165039063 113.3528900146484 91.59149169921875 111.1678466796875 94.82576751708984 C 109.0034790039063 98.02946472167969 106.5178298950195 101.0420913696289 103.7799530029297 103.7799530029297 C 101.0420913696289 106.5178298950195 98.02946472167969 109.0034790039063 94.82576751708984 111.1678466796875 C 91.59149169921875 113.3528900146484 88.13394165039063 115.2295837402344 84.54917144775391 116.7458190917969 C 77.09075164794922 119.9004592895508 69.16766357421875 121.5 61 121.5 Z" stroke="none"/>
          <path d="M 61 1 C 52.89962005615234 1 45.04205322265625 2.586250305175781 37.64559936523438 5.714683532714844 C 34.09056854248047 7.218330383300781 30.66166687011719 9.079498291015625 27.45413208007813 11.24646759033203 C 24.27681732177734 13.39301300048828 21.28896331787109 15.85821533203125 18.57360076904297 18.57360076904297 C 15.85821533203125 21.28896331787109 13.39301300048828 24.27681732177734 11.24646759033203 27.45413208007813 C 9.079498291015625 30.66166687011719 7.218330383300781 34.09056854248047 5.714683532714844 37.64559936523438 C 2.586250305175781 45.04205322265625 1 52.89962005615234 1 61 C 1 69.10038757324219 2.586250305175781 76.95794677734375 5.714683532714844 84.35440063476563 C 7.218330383300781 87.90943145751953 9.079498291015625 91.33833312988281 11.24646759033203 94.54586791992188 C 13.39301300048828 97.72318267822266 15.85821533203125 100.7110290527344 18.57360076904297 103.426399230957 C 21.28896331787109 106.1417846679688 24.27681732177734 108.6069793701172 27.45413208007813 110.753532409668 C 30.66166687011719 112.9205017089844 34.09056854248047 114.7816696166992 37.64559936523438 116.2853164672852 C 45.04205322265625 119.4137496948242 52.89962005615234 121 61 121 C 69.10038757324219 121 76.95794677734375 119.4137496948242 84.35440063476563 116.2853164672852 C 87.90943145751953 114.7816696166992 91.33833312988281 112.9205017089844 94.54586791992188 110.753532409668 C 97.72318267822266 108.6069793701172 100.7110290527344 106.1417846679688 103.426399230957 103.426399230957 C 106.1417846679688 100.7110290527344 108.6069793701172 97.72318267822266 110.753532409668 94.54586791992188 C 112.9205017089844 91.33833312988281 114.7816696166992 87.90943145751953 116.2853164672852 84.35440063476563 C 119.4137496948242 76.95794677734375 121 69.10038757324219 121 61 C 121 52.89962005615234 119.4137496948242 45.04205322265625 116.2853164672852 37.64559936523438 C 114.7816696166992 34.09056854248047 112.9205017089844 30.66166687011719 110.753532409668 27.45413208007813 C 108.6069793701172 24.27681732177734 106.1417846679688 21.28896331787109 103.426399230957 18.57360076904297 C 100.7110290527344 15.85821533203125 97.72318267822266 13.39301300048828 94.54586791992188 11.24646759033203 C 91.33833312988281 9.079498291015625 87.90943145751953 7.218330383300781 84.35440063476563 5.714683532714844 C 76.95794677734375 2.586250305175781 69.10038757324219 1 61 1 M 61 0 C 94.68936920166016 0 122 27.31063079833984 122 61 C 122 94.68936920166016 94.68936920166016 122 61 122 C 27.31063079833984 122 0 94.68936920166016 0 61 C 0 27.31063079833984 27.31063079833984 0 61 0 Z" stroke="none"/>
        </g>
      </g>
      <g id="Path_17310-6" data-name="Path 17310" transform="translate(1382 834)" fill="none">
        <path d="M 61 121.5 C 52.83234024047852 121.5 44.90924453735352 119.9004592895508 37.45083236694336 116.7458190917969 C 33.86606216430664 115.2295837402344 30.40850830078125 113.3528900146484 27.17423057556152 111.1678466796875 C 23.97053909301758 109.0034790039063 20.95790863037109 106.5178298950195 18.22004699707031 103.7799530029297 C 15.48216915130615 101.0420913696289 12.99652290344238 98.02946472167969 10.83215427398682 94.82576751708984 C 8.64710807800293 91.59149169921875 6.770415306091309 88.13394165039063 5.254184722900391 84.54917144775391 C 2.099538564682007 77.09075164794922 0.5 69.16766357421875 0.5 61 C 0.5 52.83234024047852 2.099538564682007 44.90924453735352 5.254184722900391 37.45083236694336 C 6.770415306091309 33.86606216430664 8.64710807800293 30.40850830078125 10.83215427398682 27.17423057556152 C 12.99652290344238 23.97053909301758 15.48216915130615 20.95790863037109 18.22004699707031 18.22004699707031 C 20.95790863037109 15.48216915130615 23.97053909301758 12.99652290344238 27.17423057556152 10.83215427398682 C 30.40850830078125 8.64710807800293 33.86606216430664 6.770415306091309 37.45083236694336 5.254184722900391 C 44.90924453735352 2.099538564682007 52.83234024047852 0.5 61 0.5 C 69.16766357421875 0.5 77.09075164794922 2.099538564682007 84.54917144775391 5.254184722900391 C 88.13394165039063 6.770415306091309 91.59149169921875 8.64710807800293 94.82576751708984 10.83215427398682 C 98.02946472167969 12.99652290344238 101.0420913696289 15.48216915130615 103.7799530029297 18.22004699707031 C 106.5178298950195 20.95790863037109 109.0034790039063 23.97053909301758 111.1678466796875 27.17423057556152 C 113.3528900146484 30.40850830078125 115.2295837402344 33.86606216430664 116.7458190917969 37.45083236694336 C 119.9004592895508 44.90924453735352 121.5 52.83234024047852 121.5 61 C 121.5 69.16766357421875 119.9004592895508 77.09075164794922 116.7458190917969 84.54917144775391 C 115.2295837402344 88.13394165039063 113.3528900146484 91.59149169921875 111.1678466796875 94.82576751708984 C 109.0034790039063 98.02946472167969 106.5178298950195 101.0420913696289 103.7799530029297 103.7799530029297 C 101.0420913696289 106.5178298950195 98.02946472167969 109.0034790039063 94.82576751708984 111.1678466796875 C 91.59149169921875 113.3528900146484 88.13394165039063 115.2295837402344 84.54917144775391 116.7458190917969 C 77.09075164794922 119.9004592895508 69.16766357421875 121.5 61 121.5 Z" stroke="none"/>
        <path d="M 61 1 C 52.89962005615234 1 45.04205322265625 2.586250305175781 37.64559936523438 5.714683532714844 C 34.09056854248047 7.218330383300781 30.66166687011719 9.079498291015625 27.45413208007813 11.24646759033203 C 24.27681732177734 13.39301300048828 21.28896331787109 15.85821533203125 18.57360076904297 18.57360076904297 C 15.85821533203125 21.28896331787109 13.39301300048828 24.27681732177734 11.24646759033203 27.45413208007813 C 9.079498291015625 30.66166687011719 7.218330383300781 34.09056854248047 5.714683532714844 37.64559936523438 C 2.586250305175781 45.04205322265625 1 52.89962005615234 1 61 C 1 69.10038757324219 2.586250305175781 76.95794677734375 5.714683532714844 84.35440063476563 C 7.218330383300781 87.90943145751953 9.079498291015625 91.33833312988281 11.24646759033203 94.54586791992188 C 13.39301300048828 97.72318267822266 15.85821533203125 100.7110290527344 18.57360076904297 103.426399230957 C 21.28896331787109 106.1417846679688 24.27681732177734 108.6069793701172 27.45413208007813 110.753532409668 C 30.66166687011719 112.9205017089844 34.09056854248047 114.7816696166992 37.64559936523438 116.2853164672852 C 45.04205322265625 119.4137496948242 52.89962005615234 121 61 121 C 69.10038757324219 121 76.95794677734375 119.4137496948242 84.35440063476563 116.2853164672852 C 87.90943145751953 114.7816696166992 91.33833312988281 112.9205017089844 94.54586791992188 110.753532409668 C 97.72318267822266 108.6069793701172 100.7110290527344 106.1417846679688 103.426399230957 103.426399230957 C 106.1417846679688 100.7110290527344 108.6069793701172 97.72318267822266 110.753532409668 94.54586791992188 C 112.9205017089844 91.33833312988281 114.7816696166992 87.90943145751953 116.2853164672852 84.35440063476563 C 119.4137496948242 76.95794677734375 121 69.10038757324219 121 61 C 121 52.89962005615234 119.4137496948242 45.04205322265625 116.2853164672852 37.64559936523438 C 114.7816696166992 34.09056854248047 112.9205017089844 30.66166687011719 110.753532409668 27.45413208007813 C 108.6069793701172 24.27681732177734 106.1417846679688 21.28896331787109 103.426399230957 18.57360076904297 C 100.7110290527344 15.85821533203125 97.72318267822266 13.39301300048828 94.54586791992188 11.24646759033203 C 91.33833312988281 9.079498291015625 87.90943145751953 7.218330383300781 84.35440063476563 5.714683532714844 C 76.95794677734375 2.586250305175781 69.10038757324219 1 61 1 M 61 0 C 94.68936920166016 0 122 27.31063079833984 122 61 C 122 94.68936920166016 94.68936920166016 122 61 122 C 27.31063079833984 122 0 94.68936920166016 0 61 C 0 27.31063079833984 27.31063079833984 0 61 0 Z" stroke="none" fill="#fa8019"/>
      </g>
    </g>
    <g id="Group_23262" data-name="Group 23262" transform="translate(1409.777 840)">
      <g id="Group_23261" data-name="Group 23261" clip-path="url(#clip-path)">
        <g id="Group_23217" data-name="Group 23217" transform="translate(32.161 0)">
          <g id="Group_23216" data-name="Group 23216" clip-path="url(#clip-path-2)">
            <rect id="Rectangle_343" data-name="Rectangle 343" width="4.109" height="14.086" transform="translate(-1.989 0.29) rotate(-8.297)" fill="#fa8019"/>
          </g>
        </g>
        <g id="Group_23219" data-name="Group 23219" transform="translate(23.938 12.466)">
          <g id="Group_23218" data-name="Group 23218" clip-path="url(#clip-path-3)">
            <rect id="Rectangle_345" data-name="Rectangle 345" width="19.162" height="19.968" transform="matrix(0.663, -0.749, 0.749, 0.663, -4.542, 5.128)" fill="#fa8019"/>
          </g>
        </g>
        <g id="Group_23221" data-name="Group 23221" transform="translate(0 16.843)">
          <g id="Group_23220" data-name="Group 23220" clip-path="url(#clip-path-4)">
            <rect id="Rectangle_347" data-name="Rectangle 347" width="82.713" height="82.713" transform="translate(-25.265 25.265) rotate(-45)" fill="url(#linear-gradient)"/>
          </g>
        </g>
        <g id="Group_23223" data-name="Group 23223" transform="translate(7.718 31.777)">
          <g id="Group_23222" data-name="Group 23222" clip-path="url(#clip-path-5)">
            <rect id="Rectangle_348" data-name="Rectangle 348" width="20.84" height="51.939" transform="translate(-0.69 19.691) rotate(-88.727)" fill="url(#linear-gradient-2)"/>
          </g>
        </g>
        <g id="Group_23230" data-name="Group 23230">
          <g id="Group_23229" data-name="Group 23229" clip-path="url(#clip-path-6)">
            <g id="Group_23228" data-name="Group 23228" transform="translate(15.439 35.034)" style="mix-blend-mode: screen;isolation: isolate">
              <g id="Group_23227" data-name="Group 23227">
                <g id="Group_23226" data-name="Group 23226" clip-path="url(#clip-path-7)">
                  <g id="Group_23225" data-name="Group 23225" transform="translate(0 0)">
                    <g id="Group_23224" data-name="Group 23224" clip-path="url(#clip-path-8)">
                      <rect id="Rectangle_349" data-name="Rectangle 349" width="14.833" height="14.833" transform="translate(0 0)" fill="url(#radial-gradient)"/>
                    </g>
                  </g>
                </g>
              </g>
            </g>
            <path id="Path_17290" data-name="Path 17290" d="M51.68,92.217a5.323,5.323,0,1,1-5.323-5.323,5.323,5.323,0,0,1,5.323,5.323" transform="translate(-23.501 -49.766)" fill="#eefdff"/>
          </g>
        </g>
        <g id="Group_23232" data-name="Group 23232" transform="translate(18.385 37.98)">
          <g id="Group_23231" data-name="Group 23231" clip-path="url(#clip-path-9)">
            <rect id="Rectangle_352" data-name="Rectangle 352" width="8.942" height="8.942" transform="translate(0 0)" fill="url(#linear-gradient-3)"/>
          </g>
        </g>
        <g id="Group_23239" data-name="Group 23239">
          <g id="Group_23238" data-name="Group 23238" clip-path="url(#clip-path-6)">
            <path id="Path_17292" data-name="Path 17292" d="M55.756,94.421A1.656,1.656,0,1,1,54.1,92.765a1.656,1.656,0,0,1,1.656,1.656" transform="translate(-30.035 -53.129)" fill="#eefdff"/>
            <path id="Path_17293" data-name="Path 17293" d="M51.721,106.492a.661.661,0,1,1-.661-.661.661.661,0,0,1,.661.661" transform="translate(-28.865 -60.612)" fill="#eefdff"/>
            <path id="Path_17294" data-name="Path 17294" d="M47.224,104.615a.33.33,0,1,1-.33-.33.331.331,0,0,1,.33.33" transform="translate(-26.668 -59.727)" fill="#eefdff"/>
            <g id="Group_23237" data-name="Group 23237" transform="translate(35.475 35.034)" style="mix-blend-mode: screen;isolation: isolate">
              <g id="Group_23236" data-name="Group 23236">
                <g id="Group_23235" data-name="Group 23235" clip-path="url(#clip-path-7)">
                  <g id="Group_23234" data-name="Group 23234" transform="translate(0 0)">
                    <g id="Group_23233" data-name="Group 23233" clip-path="url(#clip-path-12)">
                      <rect id="Rectangle_353" data-name="Rectangle 353" width="14.833" height="14.833" transform="translate(0 0)" fill="url(#radial-gradient-2)"/>
                    </g>
                  </g>
                </g>
              </g>
            </g>
            <path id="Path_17296" data-name="Path 17296" d="M98.572,92.217a5.323,5.323,0,1,1-5.323-5.323,5.323,5.323,0,0,1,5.323,5.323" transform="translate(-50.357 -49.766)" fill="#eefdff"/>
          </g>
        </g>
        <g id="Group_23241" data-name="Group 23241" transform="translate(38.421 37.98)">
          <g id="Group_23240" data-name="Group 23240" clip-path="url(#clip-path-13)">
            <rect id="Rectangle_356" data-name="Rectangle 356" width="8.942" height="8.942" transform="translate(0 0)" fill="url(#linear-gradient-4)"/>
          </g>
        </g>
        <g id="Group_23243" data-name="Group 23243">
          <g id="Group_23242" data-name="Group 23242" clip-path="url(#clip-path-6)">
            <path id="Path_17298" data-name="Path 17298" d="M102.648,94.421a1.656,1.656,0,1,1-1.657-1.656,1.656,1.656,0,0,1,1.657,1.656" transform="translate(-56.892 -53.129)" fill="#eefdff"/>
            <path id="Path_17299" data-name="Path 17299" d="M98.614,106.492a.661.661,0,1,1-.661-.661.661.661,0,0,1,.661.661" transform="translate(-55.722 -60.612)" fill="#eefdff"/>
            <path id="Path_17300" data-name="Path 17300" d="M94.116,104.615a.33.33,0,1,1-.33-.33.331.331,0,0,1,.33.33" transform="translate(-53.524 -59.727)" fill="#eefdff"/>
            <path id="Path_17301" data-name="Path 17301" d="M108.018,46.551a.932.932,0,1,1-.932-.932.932.932,0,0,1,.932.932" transform="translate(-60.797 -26.127)" fill="#fff"/>
            <path id="Path_17302" data-name="Path 17302" d="M115.7,88.023c-.3.211-2.384-4.036-7.98-7.718-1.967-1.295-3.909-2.217-3.794-2.486s2.3.234,4.056,1.047c5.579,2.588,8.074,8.907,7.718,9.157" transform="translate(-59.517 -44.526)" fill="#fff"/>
            <path id="Path_17303" data-name="Path 17303" d="M86.886,33.829c-.067.009-.109-.382-.436-.988a5.259,5.259,0,0,0-.327-.523c-.562-.773-2.467-.756-2.616-.755-2.967.026-4.874-.162-4.873-.144s1.392-.013,2.411-.034c2.876-.059,4.589-.213,5.324.557a2.422,2.422,0,0,1,.458.736,1.545,1.545,0,0,1,.059,1.152" transform="translate(-45.036 -17.945)" fill="#fff"/>
            <path id="Path_17304" data-name="Path 17304" d="M79.054,126.218a1.513,1.513,0,0,1-1.375,1.326l-9.825.948a1.514,1.514,0,0,1-1.6-1.039,6.691,6.691,0,0,1-.212-.939.329.329,0,0,1,.293-.375l12.395-1.2a.324.324,0,0,1,.354.308,6.662,6.662,0,0,1-.028.966" transform="translate(-37.82 -71.557)" fill="#eefdff"/>
          </g>
        </g>
        <g id="Group_23245" data-name="Group 23245" transform="translate(28.471 54.661)">
          <g id="Group_23244" data-name="Group 23244" clip-path="url(#clip-path-15)">
            <rect id="Rectangle_358" data-name="Rectangle 358" width="13.376" height="13.376" transform="translate(-3.077 3.077) rotate(-45)" fill="#fa8019"/>
          </g>
        </g>
        <g id="Group_23247" data-name="Group 23247" transform="translate(12.993 69.027)">
          <g id="Group_23246" data-name="Group 23246" clip-path="url(#clip-path-16)">
            <rect id="Rectangle_359" data-name="Rectangle 359" width="53.858" height="54.978" transform="translate(-16.538 19.306) rotate(-49.425)" fill="url(#linear-gradient-5)"/>
          </g>
        </g>
        <g id="Group_23249" data-name="Group 23249" transform="translate(12.999 69.028)">
          <g id="Group_23248" data-name="Group 23248" clip-path="url(#clip-path-17)">
            <rect id="Rectangle_360" data-name="Rectangle 360" width="19.832" height="21.41" transform="matrix(0.65, -0.76, 0.76, 0.65, -3.653, 4.266)" fill="url(#linear-gradient-6)"/>
          </g>
        </g>
        <g id="Group_23251" data-name="Group 23251" transform="translate(47.283 71.656)">
          <g id="Group_23250" data-name="Group 23250" clip-path="url(#clip-path-18)">
            <rect id="Rectangle_361" data-name="Rectangle 361" width="27.474" height="25.034" transform="translate(-12.569 15.905) rotate(-53.819)" fill="#fa8019"/>
          </g>
        </g>
        <g id="Group_23253" data-name="Group 23253" transform="translate(45.685 73.827)">
          <g id="Group_23252" data-name="Group 23252" clip-path="url(#clip-path-19)">
            <rect id="Rectangle_362" data-name="Rectangle 362" width="15.008" height="22.543" transform="matrix(0.887, -0.462, 0.462, 0.887, -10.278, 4.867)" fill="#cf7d37"/>
          </g>
        </g>
      </g>
    </g>
  </g>
</svg>
