<svg xmlns="http://www.w3.org/2000/svg" xmlns:xlink="http://www.w3.org/1999/xlink" width="278" height="551" viewBox="0 0 278 551">
  <defs>
    <clipPath id="clip-path">
      <rect id="Rectangle_314" data-name="Rectangle 314" width="278" height="551" transform="translate(0 1765)" fill="#fff" stroke="#707070" stroke-width="1"/>
    </clipPath>
    <clipPath id="clip-path-2">
      <rect id="Rectangle_25" data-name="Rectangle 25" width="347" height="589" fill="#fff"/>
    </clipPath>
  </defs>
  <g id="Mask_Group_4" data-name="Mask Group 4" transform="translate(0 -1765)" clip-path="url(#clip-path)">
    <g id="Mask_Group_2" data-name="Mask Group 2" transform="translate(-69 1752)" clip-path="url(#clip-path-2)">
      <g id="Group_23080" data-name="Group 23080" transform="translate(-286.621 -86.042)" opacity="0.42">
        <circle id="Ellipse_64" data-name="Ellipse 64" cx="258.879" cy="258.879" r="258.879" transform="translate(366.109 732.219) rotate(-135)" fill="none" stroke="#ed9485" stroke-miterlimit="10" stroke-width="0.5"/>
        <circle id="Ellipse_65" data-name="Ellipse 65" cx="258.879" cy="258.879" r="258.879" transform="translate(366.109 732.219) rotate(-135)" fill="none" stroke="#ed9485" stroke-miterlimit="10" stroke-width="0.5"/>
        <ellipse id="Ellipse_66" data-name="Ellipse 66" cx="232.991" cy="232.991" rx="232.991" ry="232.991" transform="translate(153.13 617.524) rotate(-94.731)" fill="none" stroke="#ed9485" stroke-miterlimit="10" stroke-width="0.5"/>
        <circle id="Ellipse_67" data-name="Ellipse 67" cx="209.692" cy="209.692" r="209.692" transform="translate(156.418 156.418)" fill="none" stroke="#ed9485" stroke-miterlimit="10" stroke-width="0.5"/>
        <circle id="Ellipse_68" data-name="Ellipse 68" cx="188.723" cy="188.723" r="188.723" transform="translate(366.109 633.003) rotate(-135)" fill="none" stroke="#ed9485" stroke-miterlimit="10" stroke-width="0.5"/>
        <circle id="Ellipse_69" data-name="Ellipse 69" cx="169.85" cy="169.85" r="169.85" transform="translate(196.259 196.259)" fill="none" stroke="#ed9485" stroke-miterlimit="10" stroke-width="0.5"/>
        <ellipse id="Ellipse_70" data-name="Ellipse 70" cx="152.865" cy="152.865" rx="152.865" ry="152.865" transform="translate(226.374 531.062) rotate(-94.731)" fill="none" stroke="#ed9485" stroke-miterlimit="10" stroke-width="0.5"/>
        <ellipse id="Ellipse_71" data-name="Ellipse 71" cx="137.579" cy="137.579" rx="137.579" ry="137.579" transform="translate(468.399 531.617) rotate(-166.717)" fill="none" stroke="#ed9485" stroke-miterlimit="10" stroke-width="0.5"/>
        <circle id="Ellipse_72" data-name="Ellipse 72" cx="123.821" cy="123.821" r="123.821" transform="translate(366.109 541.219) rotate(-135)" fill="none" stroke="#ed9485" stroke-miterlimit="10" stroke-width="0.5"/>
        <ellipse id="Ellipse_73" data-name="Ellipse 73" cx="111.439" cy="111.439" rx="111.439" ry="111.439" transform="translate(273.96 493.96) rotate(-99.217)" fill="none" stroke="#ed9485" stroke-miterlimit="10" stroke-width="0.5"/>
        <ellipse id="Ellipse_74" data-name="Ellipse 74" cx="100.295" cy="100.295" rx="100.295" ry="100.295" transform="translate(311.83 497.151) rotate(-112.5)" fill="none" stroke="#ed9485" stroke-miterlimit="10" stroke-width="0.5"/>
        <ellipse id="Ellipse_75" data-name="Ellipse 75" cx="90.265" cy="90.265" rx="90.265" ry="90.265" transform="matrix(-0.038, -0.999, 0.999, -0.038, 279.375, 459.772)" fill="none" stroke="#ed9485" stroke-miterlimit="10" stroke-width="0.5"/>
        <ellipse id="Ellipse_76" data-name="Ellipse 76" cx="81.239" cy="81.239" rx="81.239" ry="81.239" transform="translate(298.933 459.313) rotate(-99.217)" fill="none" stroke="#ed9485" stroke-miterlimit="10" stroke-width="0.5"/>
        <ellipse id="Ellipse_77" data-name="Ellipse 77" cx="73.115" cy="73.115" rx="73.115" ry="73.115" transform="translate(299.275 445.006) rotate(-94.731)" fill="none" stroke="#ed9485" stroke-miterlimit="10" stroke-width="0.5"/>
        <circle id="Ellipse_78" data-name="Ellipse 78" cx="65.803" cy="65.803" r="65.803" transform="translate(300.306 300.306)" fill="none" stroke="#ed9485" stroke-miterlimit="10" stroke-width="0.5"/>
        <circle id="Ellipse_79" data-name="Ellipse 79" cx="59.223" cy="59.223" r="59.223" transform="translate(306.886 306.886)" fill="none" stroke="#ed9485" stroke-miterlimit="10" stroke-width="0.5"/>
        <circle id="Ellipse_80" data-name="Ellipse 80" cx="53.301" cy="53.301" r="53.301" transform="translate(312.809 312.809)" fill="none" stroke="#ed9485" stroke-miterlimit="10" stroke-width="0.5"/>
        <path id="Path_28" data-name="Path 28" d="M622.072,22.145a47.972,47.972,0,1,0,47.97-47.97A47.97,47.97,0,0,0,622.072,22.145Z" transform="translate(-303.934 343.964)" fill="none" stroke="#ed9485" stroke-miterlimit="10" stroke-width="0.5"/>
        <ellipse id="Ellipse_81" data-name="Ellipse 81" cx="42.322" cy="42.322" rx="42.322" ry="42.322" transform="translate(327.423 411.778) rotate(-94.731)" fill="none" stroke="#ed9485" stroke-miterlimit="10" stroke-width="0.5"/>
        <ellipse id="Ellipse_82" data-name="Ellipse 82" cx="35.929" cy="35.929" rx="35.929" ry="35.929" transform="translate(333.267 404.879) rotate(-94.731)" fill="none" stroke="#ed9485" stroke-miterlimit="10" stroke-width="0.5"/>
        <path id="Path_29" data-name="Path 29" d="M630.389,11.507A29.016,29.016,0,1,0,659.4-17.508,29.016,29.016,0,0,0,630.389,11.507Z" transform="translate(-293.296 354.602)" fill="none" stroke="#ed9485" stroke-miterlimit="10" stroke-width="0.5"/>
        <ellipse id="Ellipse_83" data-name="Ellipse 83" cx="20.65" cy="20.65" rx="20.65" ry="20.65" transform="translate(381.462 390.951) rotate(-166.717)" fill="none" stroke="#ed9485" stroke-miterlimit="10" stroke-width="0.5"/>
      </g>
    </g>
  </g>
</svg>
