<svg xmlns="http://www.w3.org/2000/svg" xmlns:xlink="http://www.w3.org/1999/xlink" width="248" height="421" viewBox="0 0 248 421">
  <defs>
    <clipPath id="clip-path">
      <rect id="Rectangle_24" data-name="Rectangle 24" width="248" height="421" transform="translate(1672 1983)" fill="#fff"/>
    </clipPath>
  </defs>
  <g id="Mask_Group_1" data-name="Mask Group 1" transform="translate(-1672 -1983)" clip-path="url(#clip-path)">
    <g id="Group_23079" data-name="Group 23079" transform="translate(1119.017 2086.915)" opacity="0.42">
      <circle id="Ellipse_44" data-name="Ellipse 44" cx="185.039" cy="185.039" r="185.039" transform="translate(482.483 96.269) rotate(-45)" fill="none" stroke="#ed9485" stroke-miterlimit="10" stroke-width="0.5"/>
      <circle id="Ellipse_45" data-name="Ellipse 45" cx="185.039" cy="185.039" r="185.039" transform="translate(482.483 96.269) rotate(-45)" fill="none" stroke="#ed9485" stroke-miterlimit="10" stroke-width="0.5"/>
      <circle id="Ellipse_46" data-name="Ellipse 46" cx="166.535" cy="166.535" r="166.535" transform="matrix(0.082, -0.997, 0.997, 0.082, 564.464, 248.501)" fill="none" stroke="#ed9485" stroke-miterlimit="10" stroke-width="0.5"/>
      <circle id="Ellipse_47" data-name="Ellipse 47" cx="149.881" cy="149.881" r="149.881" transform="translate(594.285 -53.612)" fill="none" stroke="#ed9485" stroke-miterlimit="10" stroke-width="0.5"/>
      <circle id="Ellipse_48" data-name="Ellipse 48" cx="134.893" cy="134.893" r="134.893" transform="translate(553.399 96.269) rotate(-45)" fill="none" stroke="#ed9485" stroke-miterlimit="10" stroke-width="0.5"/>
      <circle id="Ellipse_49" data-name="Ellipse 49" cx="121.404" cy="121.404" r="121.404" transform="translate(622.763 -25.135)" fill="none" stroke="#ed9485" stroke-miterlimit="10" stroke-width="0.5"/>
      <circle id="Ellipse_50" data-name="Ellipse 50" cx="109.264" cy="109.264" r="109.264" transform="translate(626.263 196.148) rotate(-85.269)" fill="none" stroke="#ed9485" stroke-miterlimit="10" stroke-width="0.5"/>
      <circle id="Ellipse_51" data-name="Ellipse 51" cx="98.337" cy="98.337" r="98.337" transform="translate(625.867 23.156) rotate(-13.283)" fill="none" stroke="#ed9485" stroke-miterlimit="10" stroke-width="0.5"/>
      <circle id="Ellipse_52" data-name="Ellipse 52" cx="88.504" cy="88.504" r="88.504" transform="translate(619.004 96.269) rotate(-45)" fill="none" stroke="#ed9485" stroke-miterlimit="10" stroke-width="0.5"/>
      <circle id="Ellipse_53" data-name="Ellipse 53" cx="79.653" cy="79.653" r="79.653" transform="translate(652.783 162.135) rotate(-80.783)" fill="none" stroke="#ed9485" stroke-miterlimit="10" stroke-width="0.5"/>
      <circle id="Ellipse_54" data-name="Ellipse 54" cx="71.688" cy="71.688" r="71.688" transform="translate(650.502 135.067) rotate(-67.5)" fill="none" stroke="#ed9485" stroke-miterlimit="10" stroke-width="0.5"/>
      <circle id="Ellipse_55" data-name="Ellipse 55" cx="64.519" cy="64.519" r="64.519" transform="translate(677.22 158.265) rotate(-87.801)" fill="none" stroke="#ed9485" stroke-miterlimit="10" stroke-width="0.5"/>
      <circle id="Ellipse_56" data-name="Ellipse 56" cx="58.067" cy="58.067" r="58.067" transform="translate(677.548 144.286) rotate(-80.783)" fill="none" stroke="#ed9485" stroke-miterlimit="10" stroke-width="0.5"/>
      <circle id="Ellipse_57" data-name="Ellipse 57" cx="52.26" cy="52.26" r="52.26" transform="translate(687.774 144.041) rotate(-85.269)" fill="none" stroke="#ed9485" stroke-miterlimit="10" stroke-width="0.5"/>
      <circle id="Ellipse_58" data-name="Ellipse 58" cx="47.034" cy="47.034" r="47.034" transform="translate(697.132 49.235)" fill="none" stroke="#ed9485" stroke-miterlimit="10" stroke-width="0.5"/>
      <circle id="Ellipse_59" data-name="Ellipse 59" cx="42.331" cy="42.331" r="42.331" transform="translate(701.836 53.938)" fill="none" stroke="#ed9485" stroke-miterlimit="10" stroke-width="0.5"/>
      <circle id="Ellipse_60" data-name="Ellipse 60" cx="38.098" cy="38.098" r="38.098" transform="translate(706.069 58.171)" fill="none" stroke="#ed9485" stroke-miterlimit="10" stroke-width="0.5"/>
      <path id="Path_26" data-name="Path 26" d="M690.649,8.463a34.289,34.289,0,1,1-34.288-34.288A34.288,34.288,0,0,1,690.649,8.463Z" transform="translate(87.806 87.806)" fill="none" stroke="#ed9485" stroke-miterlimit="10" stroke-width="0.5"/>
      <circle id="Ellipse_61" data-name="Ellipse 61" cx="30.25" cy="30.25" r="30.25" transform="translate(711.524 123.922) rotate(-85.269)" fill="none" stroke="#ed9485" stroke-miterlimit="10" stroke-width="0.5"/>
      <circle id="Ellipse_62" data-name="Ellipse 62" cx="25.681" cy="25.681" r="25.681" transform="translate(716.455 119.744) rotate(-85.269)" fill="none" stroke="#ed9485" stroke-miterlimit="10" stroke-width="0.5"/>
      <path id="Path_27" data-name="Path 27" d="M671.869,3.231A20.74,20.74,0,1,1,651.13-17.508,20.74,20.74,0,0,1,671.869,3.231Z" transform="translate(93.038 93.038)" fill="none" stroke="#ed9485" stroke-miterlimit="10" stroke-width="0.5"/>
      <circle id="Ellipse_63" data-name="Ellipse 63" cx="14.76" cy="14.76" r="14.76" transform="translate(726.411 85.296) rotate(-13.283)" fill="none" stroke="#ed9485" stroke-miterlimit="10" stroke-width="0.5"/>
    </g>
  </g>
</svg>
