<svg xmlns="http://www.w3.org/2000/svg" width="1925" height="116" viewBox="0 0 1925 116">
  <g id="Group_23126" data-name="Group 23126" transform="translate(2 -5723)">
    <rect id="Rectangle_311" data-name="Rectangle 311" width="1925" height="111" transform="translate(-2 5723)" fill="#fa8019"/>
    <line id="Line_9" data-name="Line 9" x2="57.5" transform="translate(1812 5796.273)" fill="none" stroke="#fff" stroke-linecap="round" stroke-miterlimit="10" stroke-width="3" stroke-dasharray="7" opacity="0.17"/>
    <line id="Line_10" data-name="Line 10" y1="28.661" x2="41.5" transform="translate(36 5763.806)" fill="none" stroke="#fff" stroke-linecap="round" stroke-miterlimit="10" stroke-width="3" stroke-dasharray="7" opacity="0.17"/>
    <g id="Group_23116" data-name="Group 23116" transform="translate(1402.259 5789.588) rotate(-90)" opacity="0.37">
      <circle id="Ellipse_14" data-name="Ellipse 14" cx="1.292" cy="1.292" r="1.292" transform="translate(0 0)" fill="#fff"/>
      <circle id="Ellipse_15" data-name="Ellipse 15" cx="1.292" cy="1.292" r="1.292" transform="translate(37.733 0)" fill="#fff"/>
      <circle id="Ellipse_16" data-name="Ellipse 16" cx="1.292" cy="1.292" r="1.292" transform="translate(0 12.227)" fill="#fff"/>
      <circle id="Ellipse_17" data-name="Ellipse 17" cx="1.292" cy="1.292" r="1.292" transform="translate(37.733 12.227)" fill="#fff"/>
      <path id="Path_5" data-name="Path 5" d="M548.767,366.693a1.292,1.292,0,1,1-1.292-1.292A1.291,1.291,0,0,1,548.767,366.693Z" transform="translate(-527.316 -365.401)" fill="#fff"/>
      <path id="Path_6" data-name="Path 6" d="M548.767,374.3a1.292,1.292,0,1,1-1.292-1.292A1.292,1.292,0,0,1,548.767,374.3Z" transform="translate(-527.316 -360.779)" fill="#fff"/>
      <circle id="Ellipse_18" data-name="Ellipse 18" cx="1.292" cy="1.292" r="1.292" transform="translate(28.3 0)" fill="#fff"/>
      <circle id="Ellipse_19" data-name="Ellipse 19" cx="1.292" cy="1.292" r="1.292" transform="translate(28.3 12.227)" fill="#fff"/>
      <circle id="Ellipse_20" data-name="Ellipse 20" cx="1.292" cy="1.292" r="1.292" transform="translate(9.433 0)" fill="#fff"/>
      <circle id="Ellipse_21" data-name="Ellipse 21" cx="1.292" cy="1.292" r="1.292" transform="translate(9.433 12.227)" fill="#fff"/>
    </g>
    <g id="Group_23119" data-name="Group 23119" transform="matrix(0.966, -0.259, 0.259, 0.966, 563.496, 5784.162)" opacity="0.37">
      <circle id="Ellipse_14-2" data-name="Ellipse 14" cx="1.292" cy="1.292" r="1.292" transform="translate(0 0)" fill="#fff"/>
      <circle id="Ellipse_15-2" data-name="Ellipse 15" cx="1.292" cy="1.292" r="1.292" transform="translate(34.687 0)" fill="#fff"/>
      <circle id="Ellipse_16-2" data-name="Ellipse 16" cx="1.292" cy="1.292" r="1.292" transform="translate(0 8.672)" fill="#fff"/>
      <circle id="Ellipse_17-2" data-name="Ellipse 17" cx="1.292" cy="1.292" r="1.292" transform="translate(34.687 8.672)" fill="#fff"/>
      <path id="Path_5-2" data-name="Path 5" d="M548.767,366.693a1.292,1.292,0,1,1-1.292-1.292A1.291,1.291,0,0,1,548.767,366.693Z" transform="translate(-528.839 -365.401)" fill="#fff"/>
      <path id="Path_6-2" data-name="Path 6" d="M548.767,374.3a1.292,1.292,0,1,1-1.292-1.292A1.292,1.292,0,0,1,548.767,374.3Z" transform="translate(-528.839 -364.335)" fill="#fff"/>
      <circle id="Ellipse_18-2" data-name="Ellipse 18" cx="1.292" cy="1.292" r="1.292" transform="translate(26.016 0)" fill="#fff"/>
      <circle id="Ellipse_19-2" data-name="Ellipse 19" cx="1.292" cy="1.292" r="1.292" transform="translate(26.016 8.672)" fill="#fff"/>
      <circle id="Ellipse_20-2" data-name="Ellipse 20" cx="1.292" cy="1.292" r="1.292" transform="translate(8.672 0)" fill="#fff"/>
      <circle id="Ellipse_21-2" data-name="Ellipse 21" cx="1.292" cy="1.292" r="1.292" transform="translate(8.672 8.672)" fill="#fff"/>
    </g>
    <g id="Group_23117" data-name="Group 23117" transform="matrix(0.985, -0.174, 0.174, 0.985, 366.468, 5752.988)" opacity="0.29">
      <line id="Line_6" data-name="Line 6" x1="40.529" y1="42.501" transform="translate(24.363 3.817)" fill="none" stroke="#fff" stroke-miterlimit="10" stroke-width="1.21"/>
      <line id="Line_7" data-name="Line 7" x1="40.529" y1="42.501" transform="translate(12.182 1.909)" fill="none" stroke="#fff" stroke-miterlimit="10" stroke-width="1.21"/>
      <line id="Line_8" data-name="Line 8" x1="40.529" y1="42.501" transform="translate(0 0)" fill="none" stroke="#fff" stroke-miterlimit="10" stroke-width="1.21"/>
    </g>
    <g id="Group_23118" data-name="Group 23118" transform="matrix(0.985, 0.174, -0.174, 0.985, 1250.633, 5778.137)" opacity="0.29">
      <line id="Line_6-2" data-name="Line 6" x1="33.421" y2="35.048" transform="translate(20.091 0)" fill="none" stroke="#fff" stroke-miterlimit="10" stroke-width="1.21"/>
      <line id="Line_7-2" data-name="Line 7" x1="33.421" y2="35.048" transform="translate(10.045 1.574)" fill="none" stroke="#fff" stroke-miterlimit="10" stroke-width="1.21"/>
      <line id="Line_8-2" data-name="Line 8" x1="33.421" y2="35.048" transform="translate(0 3.148)" fill="none" stroke="#fff" stroke-miterlimit="10" stroke-width="1.21"/>
    </g>
    <g id="Ellipse_84" data-name="Ellipse 84" transform="translate(1446 5802)" fill="none" stroke="#fff" stroke-width="1" opacity="0.29">
      <circle cx="9.5" cy="9.5" r="9.5" stroke="none"/>
      <circle cx="9.5" cy="9.5" r="9" fill="none"/>
    </g>
    <g id="Ellipse_88" data-name="Ellipse 88" transform="translate(291 5820)" fill="none" stroke="#fff" stroke-width="1" opacity="0.29">
      <circle cx="9.5" cy="9.5" r="9.5" stroke="none"/>
      <circle cx="9.5" cy="9.5" r="9" fill="none"/>
    </g>
  </g>
</svg>
